<svg width="40" height="40" viewBox="0 0 40 40" fill="none" xmlns="http://www.w3.org/2000/svg">
<g filter="url(#filter0_i)">
<circle cx="20" cy="20" r="20" fill="#E5E5E5"/>
</g>
<path d="M28.1517 32.5833L22.8995 22.3367C22.6417 23.8833 22.1584 25.3656 21.5139 26.7189L25.2517 34.0656C25.5417 34.6133 26.0895 34.9356 26.7017 34.9356C26.9595 34.9356 27.185 34.8711 27.4428 34.7745C28.2484 34.3556 28.5384 33.3889 28.1517 32.5833Z" fill="#8C1515"/>
<path d="M19.5483 11.4133C21.0432 11.4133 22.255 10.2015 22.255 8.70667C22.255 7.21182 21.0432 6 19.5483 6C18.0535 6 16.8417 7.21182 16.8417 8.70667C16.8417 10.2015 18.0535 11.4133 19.5483 11.4133Z" fill="#8C1515"/>
<path d="M26.025 17.4389C23.0606 16.1822 21.1272 12.9922 21.095 12.9278C20.6117 12.09 19.5161 11.8 18.6783 12.3156C18.5495 12.38 18.4528 12.4767 18.3561 12.5411C17.2606 13.25 14.425 15.4411 12.975 20.21C12.685 21.1122 13.2006 22.0789 14.135 22.3689C15.0372 22.6589 16.0039 22.1433 16.2939 21.2089C16.9061 19.1789 17.8083 17.7611 18.6139 16.8589C18.8072 18.0511 18.9039 19.63 18.6139 21.4022C17.7117 26.9444 12.5883 31.9711 12.5239 32.0356C11.8472 32.7122 11.815 33.7756 12.4917 34.4844C12.8461 34.8389 13.265 35 13.7161 35C14.135 35 14.5861 34.8389 14.9083 34.5167C15.1661 34.2911 20.9661 28.62 21.965 21.9822C22.1261 21.0478 22.1583 20.1456 22.1906 19.3078C22.9317 19.8556 23.7372 20.3389 24.6395 20.7256C24.865 20.8222 25.0906 20.8544 25.3161 20.8544C25.9928 20.8544 26.6695 20.4356 26.9595 19.7911C27.3461 18.8567 26.9272 17.8256 26.025 17.4389Z" fill="#8C1515"/>
<defs>
<filter id="filter0_i" x="0" y="0" width="42" height="42" filterUnits="userSpaceOnUse" color-interpolation-filters="sRGB">
<feFlood flood-opacity="0" result="BackgroundImageFix"/>
<feBlend mode="normal" in="SourceGraphic" in2="BackgroundImageFix" result="shape"/>
<feColorMatrix in="SourceAlpha" type="matrix" values="0 0 0 0 0 0 0 0 0 0 0 0 0 0 0 0 0 0 127 0" result="hardAlpha"/>
<feOffset dx="2" dy="2"/>
<feGaussianBlur stdDeviation="2"/>
<feComposite in2="hardAlpha" operator="arithmetic" k2="-1" k3="1"/>
<feColorMatrix type="matrix" values="0 0 0 0 0 0 0 0 0 0 0 0 0 0 0 0 0 0 0.25 0"/>
<feBlend mode="normal" in2="shape" result="effect1_innerShadow"/>
</filter>
</defs>
</svg>
