<svg width="14" height="25" viewBox="0 0 14 25" fill="none" xmlns="http://www.w3.org/2000/svg">
<path d="M13.8545 22.8025L9.34926 14.0132C9.12814 15.3399 8.71355 16.6113 8.16077 17.7721L11.3669 24.0739C11.6157 24.5438 12.0856 24.8202 12.6107 24.8202C12.8318 24.8202 13.0253 24.7649 13.2464 24.682C13.9374 24.3226 14.1861 23.4935 13.8545 22.8025Z" fill="white"/>
<path d="M6.47478 4.6434C7.75702 4.6434 8.79648 3.60394 8.79648 2.3217C8.79648 1.03946 7.75702 0 6.47478 0C5.19254 0 4.15308 1.03946 4.15308 2.3217C4.15308 3.60394 5.19254 4.6434 6.47478 4.6434Z" fill="white"/>
<path d="M12.0303 9.81193C9.48744 8.734 7.82908 5.99771 7.80144 5.94243C7.38685 5.2238 6.44712 4.97505 5.72849 5.41728C5.61794 5.47256 5.53502 5.55548 5.4521 5.61076C4.51236 6.21882 2.08011 8.09829 0.836336 12.1889C0.587582 12.9628 1.02981 13.792 1.83135 14.0407C2.60525 14.2895 3.43443 13.8473 3.68319 13.0457C4.20833 11.3045 4.98223 10.0883 5.67322 9.31442C5.83905 10.3371 5.92197 11.6914 5.67322 13.2116C4.89932 17.9655 0.504664 22.2773 0.449385 22.3325C-0.13104 22.913 -0.158679 23.8251 0.421746 24.4331C0.725779 24.7372 1.08509 24.8754 1.47204 24.8754C1.83135 24.8754 2.2183 24.7372 2.49469 24.4608C2.71581 24.2673 7.69089 19.4028 8.5477 13.7091C8.6859 12.9075 8.71354 12.1336 8.74118 11.415C9.37688 11.8849 10.0679 12.2995 10.8418 12.6311C11.0352 12.7141 11.2287 12.7417 11.4222 12.7417C12.0026 12.7417 12.583 12.3824 12.8318 11.8296C13.1635 11.0281 12.8042 10.1436 12.0303 9.81193Z" fill="white"/>
</svg>
