<svg width="20" height="16" viewBox="0 0 20 16" fill="none" xmlns="http://www.w3.org/2000/svg">
<path d="M19.164 9.16701L13.6505 5.98425C13.569 5.94002 13.475 5.92418 13.3835 5.93923C13.292 5.95429 13.2081 5.99937 13.145 6.06738C13.0819 6.13539 13.0433 6.22246 13.0352 6.31486C13.027 6.40726 13.0499 6.49973 13.1002 6.5777L17.7373 9.07418H9.84114C9.84114 9.07418 9.84114 4.96312 9.84114 4.94985C9.84288 4.30129 9.71681 3.65874 9.47013 3.05893C9.22344 2.45911 8.86098 1.91378 8.40345 1.4541C7.94593 0.994416 7.40231 0.629396 6.80366 0.379896C6.205 0.130395 5.56305 0.00130437 4.91449 0C-1.53723 0.251968 -1.6831 9.41235 4.75204 9.86987C4.80303 9.89292 4.85854 9.90425 4.91449 9.90303H9.02556V15.5856C9.02556 15.6955 9.06922 15.8009 9.14694 15.8786C9.22466 15.9563 9.33007 16 9.43998 16C9.54989 16 9.6553 15.9563 9.73302 15.8786C9.81074 15.8009 9.8544 15.6955 9.8544 15.5856V9.90303H17.7373L13.1002 12.4724C13.0499 12.5504 13.027 12.6429 13.0352 12.7353C13.0433 12.8277 13.0819 12.9148 13.145 12.9828C13.2081 13.0508 13.292 13.0959 13.3835 13.1109C13.475 13.126 13.569 13.1101 13.6505 13.0659L19.164 9.88313C19.2258 9.846 19.2769 9.79351 19.3124 9.73077C19.3479 9.66802 19.3665 9.59716 19.3665 9.52507C19.3665 9.45298 19.3479 9.38212 19.3124 9.31938C19.2769 9.25663 19.2258 9.20414 19.164 9.16701ZM9.02556 9.07418H5.03053C-0.516092 8.90841 -0.605608 1.09076 4.90455 0.828844C5.44613 0.827971 5.98256 0.933945 6.48312 1.1407C6.98369 1.34745 7.43855 1.65091 7.82166 2.03371C8.20477 2.41651 8.5086 2.87113 8.71575 3.37153C8.9229 3.87193 9.02931 4.40827 9.02887 4.94985C9.02887 4.94985 9.02887 9.06424 9.02556 9.07418Z" fill="#2E2D29"/>
</svg>
