<svg width="24" height="24" viewBox="0 0 24 24" fill="none" xmlns="http://www.w3.org/2000/svg">
<path d="M11.7648 3.0538C10.5632 3.0538 9.61206 4.05505 9.61206 5.30662C9.61206 6.55818 10.5632 7.55943 11.7648 7.55943C12.9663 7.55943 13.9174 6.55818 13.9174 5.30662C13.9174 4.05505 12.9162 3.0538 11.7648 3.0538Z" fill="white"/>
<path d="M11.7647 0C8.9612 0 6.65833 2.403 6.65833 5.30663C6.65833 7.60951 10.0125 12.6158 11.7647 14.9687C13.5169 12.6158 16.8711 7.60951 16.8711 5.30663C16.8711 2.403 14.5682 0 11.7647 0ZM11.7647 8.66083C9.96246 8.66083 8.51064 7.15895 8.51064 5.30663C8.51064 3.45432 9.96246 1.95244 11.7647 1.95244C13.567 1.95244 15.0188 3.45432 15.0188 5.30663C15.0188 7.15895 13.5169 8.66083 11.7647 8.66083Z" fill="white"/>
<path d="M23.5295 23.5294L20.1753 11.7147H15.2692C13.8174 14.0676 12.3155 16.02 12.1653 16.1702L11.7648 16.771L11.3143 16.2203C11.2141 16.0701 9.6622 14.0676 8.21038 11.7647H4.00513L0.00012207 23.5795H23.5295V23.5294Z" fill="white"/>
</svg>
