<svg width="25" height="19" viewBox="0 0 25 19" fill="none" xmlns="http://www.w3.org/2000/svg">
<path d="M23.6385 11.1424C24.3414 10.0229 24.7059 8.77332 24.7059 7.47164C24.7059 5.44102 23.8207 3.54057 22.2327 2.13476C20.6707 0.754977 18.614 0 16.4532 0C14.2924 0 12.2098 0.754977 10.6738 2.13476C10.4395 2.34303 10.2312 2.5513 10.049 2.75957C9.5283 2.68147 8.98159 2.6294 8.43489 2.6294C3.77488 2.6294 0 5.98773 0 10.1271C0 11.611 0.494648 13.0168 1.32772 14.1883L0.885148 18.0152C0.859115 18.2756 1.11945 18.4578 1.35375 18.3537L4.66002 16.8437C5.8055 17.3384 7.08114 17.6247 8.43489 17.6247C11.0903 17.6247 13.4594 16.5313 14.9954 14.8391C15.464 14.9172 15.9586 14.9693 16.4532 14.9693C17.5206 14.9693 18.562 14.7871 19.5512 14.4226L21.8162 15.4639C22.0244 15.5681 22.2327 15.5941 22.441 15.5941C22.8835 15.5941 23.3001 15.4119 23.5864 15.0735C23.8728 14.7611 24.003 14.3185 23.9509 13.8759L23.6385 11.1424ZM4.37366 11.2986C3.72282 11.2986 3.1761 10.7519 3.1761 10.101C3.1761 9.45019 3.72282 8.90349 4.37366 8.90349C5.02449 8.90349 5.57119 9.45019 5.57119 10.101C5.57119 10.7779 5.05053 11.2986 4.37366 11.2986ZM8.40886 11.2986C7.75802 11.2986 7.21131 10.7519 7.21131 10.101C7.21131 9.45019 7.75802 8.90349 8.40886 8.90349C9.0597 8.90349 9.6064 9.45019 9.6064 10.101C9.6064 10.7779 9.08573 11.2986 8.40886 11.2986ZM12.4441 11.2986C11.7932 11.2986 11.2465 10.7519 11.2465 10.101C11.2465 9.45019 11.7932 8.90349 12.4441 8.90349C13.0949 8.90349 13.6416 9.45019 13.6416 10.101C13.6676 10.7779 13.1209 11.2986 12.4441 11.2986ZM22.7013 14.0061C22.7273 14.1623 22.5972 14.3185 22.441 14.3185C22.4149 14.3185 22.3629 14.3185 22.3368 14.2924L19.6033 13.0428C18.6661 13.4594 17.5987 13.6937 16.4793 13.6937C16.271 13.6937 16.0888 13.6937 15.8805 13.6676C16.5313 12.6003 16.8698 11.4027 16.8698 10.1271C16.8698 6.92494 14.6048 4.19141 11.4548 3.12403C12.7304 1.97855 14.5007 1.24961 16.4793 1.24961C20.3583 1.24961 23.4823 4.03521 23.4823 7.47164C23.4823 8.72126 23.0658 9.86674 22.3629 10.83L22.7013 14.0061Z" fill="white"/>
</svg>
