<svg width="40" height="41" viewBox="0 0 40 41" fill="none" xmlns="http://www.w3.org/2000/svg">
<g filter="url(#filter0_i)">
<circle cx="20" cy="20.8571" r="20" fill="#E5E5E5"/>
</g>
<path d="M30.6973 22.5877C31.4003 21.4683 31.7647 20.2187 31.7647 18.917C31.7647 16.8864 30.8796 14.9859 29.2915 13.5801C27.7295 12.2004 25.6729 11.4454 23.5121 11.4454C21.3513 11.4454 19.2686 12.2004 17.7326 13.5801C17.4983 13.7884 17.29 13.9967 17.1078 14.2049C16.5871 14.1268 16.0404 14.0748 15.4937 14.0748C10.8337 14.0748 7.05884 17.4331 7.05884 21.5724C7.05884 23.0564 7.55349 24.4622 8.38656 25.6337L7.94399 29.4606C7.91795 29.721 8.17829 29.9032 8.41259 29.7991L11.7189 28.2891C12.8643 28.7837 14.14 29.0701 15.4937 29.0701C18.1492 29.0701 20.5182 27.9767 22.0542 26.2845C22.5228 26.3626 23.0174 26.4147 23.5121 26.4147C24.5794 26.4147 25.6208 26.2325 26.6101 25.868L28.875 26.9093C29.0833 27.0135 29.2915 27.0395 29.4998 27.0395C29.9424 27.0395 30.3589 26.8573 30.6453 26.5188C30.9316 26.2064 31.0618 25.7638 31.0097 25.3213L30.6973 22.5877ZM11.4325 22.744C10.7817 22.744 10.2349 22.1972 10.2349 21.5464C10.2349 20.8956 10.7817 20.3489 11.4325 20.3489C12.0833 20.3489 12.63 20.8956 12.63 21.5464C12.63 22.2233 12.1094 22.744 11.4325 22.744ZM15.4677 22.744C14.8169 22.744 14.2701 22.1972 14.2701 21.5464C14.2701 20.8956 14.8169 20.3489 15.4677 20.3489C16.1185 20.3489 16.6652 20.8956 16.6652 21.5464C16.6652 22.2233 16.1446 22.744 15.4677 22.744ZM19.5029 22.744C18.8521 22.744 18.3054 22.1972 18.3054 21.5464C18.3054 20.8956 18.8521 20.3489 19.5029 20.3489C20.1537 20.3489 20.7004 20.8956 20.7004 21.5464C20.7265 22.2233 20.1798 22.744 19.5029 22.744ZM29.7601 25.4514C29.7862 25.6076 29.656 25.7638 29.4998 25.7638C29.4738 25.7638 29.4217 25.7639 29.3957 25.7378L26.6621 24.4882C25.7249 24.9047 24.6576 25.1391 23.5381 25.1391C23.3298 25.1391 23.1476 25.139 22.9393 25.113C23.5902 24.0456 23.9286 22.8481 23.9286 21.5724C23.9286 18.3703 21.6637 15.6368 18.5136 14.5694C19.7893 13.4239 21.5596 12.695 23.5381 12.695C27.4171 12.695 30.5411 15.4806 30.5411 18.917C30.5411 20.1666 30.1246 21.3121 29.4217 22.2754L29.7601 25.4514Z" fill="#8C1515"/>
<defs>
<filter id="filter0_i" x="0" y="0.857147" width="42" height="42" filterUnits="userSpaceOnUse" color-interpolation-filters="sRGB">
<feFlood flood-opacity="0" result="BackgroundImageFix"/>
<feBlend mode="normal" in="SourceGraphic" in2="BackgroundImageFix" result="shape"/>
<feColorMatrix in="SourceAlpha" type="matrix" values="0 0 0 0 0 0 0 0 0 0 0 0 0 0 0 0 0 0 127 0" result="hardAlpha"/>
<feOffset dx="2" dy="2"/>
<feGaussianBlur stdDeviation="2"/>
<feComposite in2="hardAlpha" operator="arithmetic" k2="-1" k3="1"/>
<feColorMatrix type="matrix" values="0 0 0 0 0 0 0 0 0 0 0 0 0 0 0 0 0 0 0.25 0"/>
<feBlend mode="normal" in2="shape" result="effect1_innerShadow"/>
</filter>
</defs>
</svg>
