<svg width="23" height="25" viewBox="0 0 23 25" fill="none" xmlns="http://www.w3.org/2000/svg">
<path d="M0.138008 8.05726C0.232986 7.27713 0.406635 6.8586 0.406635 6.8586C0.502758 6.48441 0.625198 6.11823 0.772243 5.76292C1.49945 4.00897 2.82857 2.5597 4.54046 1.555L6.33532 5.99779C6.6048 6.66492 7.11345 6.98247 7.6467 7.03625L8.10385 8.1674C6.41141 9.26651 5.67819 11.4447 6.46233 13.386C7.35318 15.5891 9.86123 16.6539 12.0643 15.7636C14.268 14.8734 15.3328 12.3659 14.4425 10.1622C13.6581 8.22119 11.6192 7.16384 9.63809 7.54804L9.18065 6.41689C9.52737 6.00723 9.6727 5.42563 9.40236 4.7585L7.61065 0.324002C8.53926 0.113162 9.5886 -0.00498783 10.7827 0.000161572C12.7795 0.00874391 16.9457 0.701625 18.2027 2.44298C18.3257 2.61291 18.3206 2.80315 18.2814 2.9871C18.9431 3.64108 19.4932 4.3886 19.9049 5.21536C20.7187 6.76934 21.0226 8.30243 20.7173 9.30399C20.479 10.0847 20.4521 10.2369 21.0712 11.2539C21.6119 12.1427 22.3917 13.5191 22.7576 14.1911C22.8271 14.3201 22.8572 14.468 22.8572 14.625C22.8572 14.9043 22.733 15.154 22.5368 15.3225C22.261 15.7825 20.6263 15.8738 20.7988 16.3487C20.8927 16.6056 21.2079 17.2544 21.3095 17.5058C21.4322 17.8097 20.7044 18.0025 20.6999 18.2142C20.701 18.2954 21.1481 18.3386 21.0775 18.8681C21.0349 19.1928 20.3777 18.938 20.3405 20.1761C20.3205 20.8481 21.1244 21.7847 19.7807 22.6364C19.1865 23.0123 17.424 22.7734 15.834 22.7196L15.7619 22.7313C14.4582 22.7313 14.0689 22.6756 13.8617 23.7255L13.6412 24.7325H8.81332H3.14154L3.14841 24.7047C3.74316 22.4693 3.8204 18.9545 2.68239 16.8616C2.59485 16.7303 2.5096 16.5975 2.42663 16.4631C0.576281 13.8609 -0.374929 11.1572 0.138008 8.05726Z" fill="white"/>
<path d="M10.4527 14.1811C9.1235 14.1811 8.04595 13.1035 8.04595 11.7743C8.04595 10.4451 9.1235 9.36754 10.4527 9.36754C11.7819 9.36754 12.8595 10.4451 12.8595 11.7743C12.8595 13.1035 11.7819 14.1811 10.4527 14.1811Z" fill="white"/>
</svg>
