<svg width="40" height="40" viewBox="0 0 40 40" fill="none" xmlns="http://www.w3.org/2000/svg">
<g filter="url(#filter0_i)">
<circle cx="20" cy="20" r="20" fill="#E5E5E5"/>
<path d="M9.04548 15.1161C9.14046 14.3359 9.31411 13.9174 9.31411 13.9174C9.41023 13.5432 9.53267 13.177 9.67971 12.8217C10.4069 11.0678 11.736 9.61851 13.4479 8.6138L15.2428 13.0566C15.5123 13.7237 16.0209 14.0413 16.5542 14.0951L17.0113 15.2262C15.3189 16.3253 14.5857 18.5035 15.3698 20.4448C16.2607 22.6479 18.7687 23.7127 20.9718 22.8224C23.1754 21.9322 24.2402 19.4247 23.35 17.221C22.5655 15.28 20.5266 14.2226 18.5456 14.6069L18.0881 13.4757C18.4348 13.066 18.5802 12.4844 18.3098 11.8173L16.5181 7.38281C17.4467 7.17197 18.4961 7.05382 19.6902 7.05897C21.687 7.06755 25.8531 7.76043 27.1102 9.50179C27.2332 9.67172 27.228 9.86196 27.1888 10.0459C27.8505 10.6999 28.4007 11.4474 28.8123 12.2742C29.6262 13.8281 29.93 15.3612 29.6248 16.3628C29.3865 17.1435 29.3596 17.2957 29.9787 18.3127C30.5194 19.2015 31.2992 20.5779 31.6651 21.2499C31.7346 21.3789 31.7646 21.5268 31.7646 21.6838C31.7646 21.9631 31.6405 22.2128 31.4442 22.3813C31.1685 22.8413 29.5338 22.9326 29.7063 23.4075C29.8002 23.6644 30.1154 24.3132 30.217 24.5647C30.3397 24.8685 29.6119 25.0613 29.6073 25.273C29.6085 25.3542 30.0556 25.3974 29.985 25.927C29.9423 26.2517 29.2852 25.9968 29.248 27.2349C29.228 27.9069 30.0319 28.8435 28.6882 29.6952C28.094 30.0711 26.3315 29.8322 24.7414 29.7784L24.6693 29.7902C23.3657 29.7902 22.9763 29.7344 22.7692 30.7843L22.5486 31.7913H17.7208H12.049L12.0559 31.7635C12.6506 29.5281 12.7279 26.0134 11.5899 23.9204C11.5023 23.7891 11.4171 23.6564 11.3341 23.5219C9.48375 20.9197 8.53254 18.216 9.04548 15.1161Z" fill="#8C1515"/>
<path d="M19.3602 21.2399C18.031 21.2399 16.9534 20.1624 16.9534 18.8331C16.9534 17.5039 18.031 16.4264 19.3602 16.4264C20.6894 16.4264 21.767 17.5039 21.767 18.8331C21.767 20.1624 20.6894 21.2399 19.3602 21.2399Z" fill="#8C1515"/>
</g>
<defs>
<filter id="filter0_i" x="0" y="0" width="42" height="42" filterUnits="userSpaceOnUse" color-interpolation-filters="sRGB">
<feFlood flood-opacity="0" result="BackgroundImageFix"/>
<feBlend mode="normal" in="SourceGraphic" in2="BackgroundImageFix" result="shape"/>
<feColorMatrix in="SourceAlpha" type="matrix" values="0 0 0 0 0 0 0 0 0 0 0 0 0 0 0 0 0 0 127 0" result="hardAlpha"/>
<feOffset dx="2" dy="2"/>
<feGaussianBlur stdDeviation="2"/>
<feComposite in2="hardAlpha" operator="arithmetic" k2="-1" k3="1"/>
<feColorMatrix type="matrix" values="0 0 0 0 0 0 0 0 0 0 0 0 0 0 0 0 0 0 0.25 0"/>
<feBlend mode="normal" in2="shape" result="effect1_innerShadow"/>
</filter>
</defs>
</svg>
