<?xml version="1.0" encoding="utf-8"?>
<!-- Generator: Adobe Illustrator 25.0.1, SVG Export Plug-In . SVG Version: 6.00 Build 0)  -->
<svg version="1.1" id="Layer_1" xmlns="http://www.w3.org/2000/svg" xmlns:xlink="http://www.w3.org/1999/xlink" x="0px" y="0px"
	 viewBox="0 0 36 30.4" style="enable-background:new 0 0 36 30.4;" xml:space="preserve">
<style type="text/css">
	.st0{fill:#FFFFFF;}
</style>
<path class="st0" d="M33.4,9.2c-1.6-1.1-3.3-2-5.1-2.7c-2.6-0.9-5.3-1.7-8.1-2.2c-3.2-0.6-6.4-0.6-9.6,0C9.2,4.6,7.8,5.1,6.4,5.8
	C5.2,6.5,4.2,7.7,3.8,9.1C3.8,9.4,3.7,9.7,3.6,9.9c-0.1,0.6-0.5,1.1-1.1,1.2c-0.9,0.2-1.6,1.1-1.5,2.1c0,0.9-0.1,1.7-0.2,2.6
	c0,1.6-0.2,3.3-0.6,4.9C0.1,21.1,0,21.5,0,21.9c-0.2,1.2,0.5,2.3,1.6,2.7c1.8,0.9,3.9,1.2,5.8,0.9c1.8-0.3,3.7-0.1,5.4,0.6
	c4.2,1.9,8.6,1.7,13.1,1.2c1.6-0.3,3.2-0.4,4.9-0.5c1.6,0.1,3.2-0.5,4.3-1.8c0-0.7,0-1.4,0-2.1c-0.1-2.5,0.1-5,0.7-7.4
	C36.5,13.1,35.5,10.6,33.4,9.2z M1.4,22.6c0.3-1.2,0.6-2.3,0.9-3.5c0.1-1.2,0.2-2.3,0.4-3.4c1.1,0.1,2.2,0.4,3.2,0.9
	c0,1.3,0.2,2.5,0.5,3.8c0.5,1.1,0.9,2.3,1.1,3.5C5.4,24.5,3.1,24,1.4,22.6L1.4,22.6z M9,23.2c-0.4-1.3-0.9-2.6-1.3-3.9
	c-0.3-0.8-0.3-1.7,0-2.5c1.5-0.2,2.8,0.3,4.2,0.5c0.1,0.2,0.2,0.4,0.2,0.6c-0.3,2-1.1,3.9-2.3,5.6C9.4,23.6,9.1,23.5,9,23.2z
	 M18,25.8c-0.3-0.6-0.2-1.3,0.2-1.9c0.4-1,1.1-1.9,2.1-2.4c0.4,1.4,0.6,2.8,0.7,4.2C20.1,26.2,19,26.2,18,25.8L18,25.8z M29,25.2
	c-2,0.3-3.9,1.1-6,0.7c-0.4-1-0.6-2.1-0.6-3.2c0-0.7-0.2-1.3-0.4-1.9c-0.3-0.6-1-0.9-1.6-0.8c-0.9,0.2-1.7,0.7-2.3,1.5
	c-0.6,0.8-1.1,1.7-1.5,2.6c-0.1,0.4-0.3,0.8-0.4,1.1c-1.6-0.1-3.1-0.6-4.4-1.4c0.8-2,1.5-4,2-6.1c2.3,0.1,4.5,0.2,6.7,0.2
	s4.2-0.2,6.5-0.3c0.4,1.5,1,2.9,1.7,4.2C29.2,22.9,29.3,24.1,29,25.2z M31.2,25.2c-0.3-0.2-0.5-0.6-0.4-1c0-1.4-0.5-2.8-1.2-4.1
	c-0.6-0.8-0.9-1.7-0.9-2.7c0.8-0.4,1.6-0.6,2.4-0.7c0.6,1.8,0.7,3.7,2.4,4.6c0.1,1.1,0.2,2,0.2,2.9C33,24.9,32.1,25.2,31.2,25.2
	L31.2,25.2z M33.7,19.3c-0.6-0.8-1-1.8-0.9-2.9c0.4-0.4,0.8-0.7,1.4-0.5C34,16.9,33.9,17.9,33.7,19.3L33.7,19.3z M32.2,14.7
	c-1.5,0.6-3,1-4.6,1.1c-5.4,0.7-10.9,0.6-16.2-0.2c-2.3-0.2-4.5-0.6-6.8-1.1c-0.5-0.1-1-0.2-1.4-0.4c-0.4-0.1-0.6-0.5-0.5-0.9
	c0-0.2,0.2-0.3,0.3-0.4c0.9-0.4,1.6-1.1,2-2c0.6-0.2,0.9,0.2,1.3,0.4c5,2.3,10.5,3.1,15.9,2.4c0.7-0.1,1.4-0.3,2.1-0.5
	c0.5-0.2,0.9-0.4,1.3-0.7c0.9-0.6,1.1-1.9,0.5-2.8c-0.1-0.1-0.2-0.3-0.3-0.4c-0.5-0.5-1.1-0.9-1.8-1.1c-2.7-0.8-5.5-1.1-8.3-0.7
	c-0.6,0.1-1.1,0.3-1.6,0.7c-0.4,0.4-0.4,1.1,0,1.5c0,0,0,0,0,0c1,0.7,2.3,0.9,3.5,0.5C18,9.8,17.9,9.3,18,8.8
	c2.4,0.1,4.8-0.1,6.6,1.5c0.1,0.4-0.1,0.8-0.4,1c-0.6,0.3-1.2,0.5-1.8,0.6c-5.1,0.8-10.3,0.1-15-2C6.9,9.7,6.1,9.5,6,8.8
	s0.7-1.2,1.3-1.6c1-0.6,2.2-1.1,3.4-1.3c2.7-0.6,5.6-0.6,8.3-0.2c3.5,0.6,6.8,1.5,10.1,2.8c1.3,0.5,2.6,1.3,3.7,2.2
	c0.8,0.6,1.3,1.4,1.5,2.4C33.8,13.9,33.1,14.4,32.2,14.7L32.2,14.7z"/>
</svg>
